<svg xmlns="http://www.w3.org/2000/svg" width="1200" height="630" viewBox="0 0 1200 630">
    <defs>
        <linearGradient id="logo" x1="0" y1="0" x2="1" y2="1">
            <stop stop-color="#67E8F9" />
            <stop offset="1" stop-color="#3B82F6" />
        </linearGradient>
        <radialGradient id="glow" cx="0" cy="0" r="1" gradientTransform="translate(920 110) rotate(132) scale(470 410)" gradientUnits="userSpaceOnUse">
            <stop stop-color="#22D3EE" stop-opacity=".3" />
            <stop offset="1" stop-color="#22D3EE" stop-opacity="0" />
        </radialGradient>
        <pattern id="grid" width="48" height="48" patternUnits="userSpaceOnUse">
            <path d="M48 0H0V48" fill="none" stroke="#94A3B8" stroke-opacity=".08" />
        </pattern>
    </defs>
    <rect width="1200" height="630" fill="#020617" />
    <rect width="1200" height="630" fill="url(#glow)" />
    <rect width="1200" height="630" fill="url(#grid)" />
    <g transform="translate(76 72)">
        <rect width="70" height="70" rx="20" fill="url(#logo)" />
        <g transform="translate(14 14)" fill="none" stroke="#08111F" stroke-linecap="round" stroke-linejoin="round" stroke-width="2.8">
            <circle cx="21" cy="21" r="17" />
            <path d="M4.6 15h32.8M4.6 27h32.8M21 4c4.4 4.5 6.5 10.1 6.5 17S25.4 33.5 21 38c-4.4-4.5-6.5-10.1-6.5-17S16.6 8.5 21 4Z" />
        </g>
        <text x="92" y="49" fill="#F8FAFC" font-family="Arial, Helvetica, sans-serif" font-size="38" font-weight="700">World</text>
    </g>
    <text x="76" y="275" fill="#F8FAFC" font-family="Arial, Helvetica, sans-serif" font-size="76" font-weight="700" letter-spacing="-3">The world, ready for your UI.</text>
    <text x="76" y="345" fill="#94A3B8" font-family="Arial, Helvetica, sans-serif" font-size="28">Laravel geographic data with live components for</text>
    <text x="76" y="387" fill="#94A3B8" font-family="Arial, Helvetica, sans-serif" font-size="28">Blade, React, Angular, and Vue.</text>
    <g transform="translate(76 476)" font-family="Arial, Helvetica, sans-serif" font-size="20" font-weight="700">
        <rect width="240" height="58" rx="16" fill="#67E8F9" />
        <text x="120" y="37" text-anchor="middle" fill="#08111F">world.bmbc.cloud</text>
    </g>
    <g transform="translate(860 410)" fill="none" stroke="#67E8F9" stroke-opacity=".6" stroke-width="3">
        <circle cx="130" cy="70" r="108" />
        <path d="M25 36h210M25 104h210M130-38c30 30 44 66 44 108s-14 78-44 108c-30-30-44-66-44-108s14-78 44-108Z" />
    </g>
</svg>
